<svg width="40" height="40" viewBox="0 0 40 40" fill="none" xmlns="http://www.w3.org/2000/svg">
<g clip-path="url(#clip0_139_29)">
<path d="M0.0191402 29.2938C0.1975 25.4005 2.91668 20.0705 8.1775 13.303C13.6158 6.23634 18.2175 2.70298 21.98 2.70298C24.3125 2.70298 26.2859 4.85298 27.8967 9.15798L31.125 20.9963C32.3225 25.2988 33.6059 27.4522 34.9792 27.4522C35.2792 27.4522 36.3258 26.823 38.1192 25.5688L40 27.9922C38.0409 29.7119 36.0953 31.447 34.1633 33.1972C31.53 35.4722 29.5525 36.668 28.235 36.7888C25.1233 37.0888 23.2067 34.9605 22.4883 30.4063C21.7108 25.4922 21.1717 22.4363 20.8708 21.2405C19.9725 17.163 18.985 15.1263 17.9067 15.1263C17.0708 15.1263 15.8125 16.4488 14.135 19.0947C12.4608 21.7388 11.5642 23.7505 11.4433 25.1338C11.2033 27.4155 12.1017 28.5588 14.135 28.5588C15.0933 28.5588 16.0808 28.3388 17.0958 27.9038C15.1292 34.3413 11.375 37.468 5.83086 37.2897C1.72086 37.1688 -0.217461 34.5038 0.0192189 29.2938L0.0191402 29.2938Z" fill="#5837FF"/>
</g>
<defs>
<clipPath id="clip0_139_29">
<rect width="40" height="40" fill="white"/>
</clipPath>
</defs>
</svg>
